<?xml version="1.0" encoding="UTF-8" standalone="no"?>
<!DOCTYPE svg PUBLIC "-//W3C//DTD SVG 1.1//EN"
 "http://www.w3.org/Graphics/SVG/1.1/DTD/svg11.dtd">
<!-- Generated by graphviz version 2.38.0 (20140413.2041)
 -->
<!-- Title: controllers_diagram Pages: 1 -->
<svg width="579pt" height="477pt"
 viewBox="0.00 0.00 579.00 476.50" xmlns="http://www.w3.org/2000/svg" xmlns:xlink="http://www.w3.org/1999/xlink">
<g id="graph0" class="graph" transform="scale(1 1) rotate(0) translate(208 354)">
<title>controllers_diagram</title>
<polygon fill="none" stroke="none" points="-208,122.5 -208,-354 371,-354 371,122.5 -208,122.5"/>
<!-- _diagram_info -->
<g id="node1" class="node"><title>_diagram_info</title>
<text text-anchor="start" x="161" y="-216.6" font-family="Times,serif" font-size="13.00">Controllers diagram</text>
<text text-anchor="start" x="161" y="-202.6" font-family="Times,serif" font-size="13.00">Date: Sep 22 2017 &#45; 20:08</text>
<text text-anchor="start" x="161" y="-188.6" font-family="Times,serif" font-size="13.00">Migration version: 20170829231837</text>
<text text-anchor="start" x="161" y="-174.6" font-family="Times,serif" font-size="13.00">Generated by RailRoady 1.5.3</text>
<text text-anchor="start" x="161" y="-160.6" font-family="Times,serif" font-size="13.00">http://railroady.prestonlee.com</text>
</g>
<!-- ZonesController -->
<g id="node2" class="node"><title>ZonesController</title>
<path fill="none" stroke="black" d="M-21.5,-136.5C-21.5,-136.5 59.5,-136.5 59.5,-136.5 65.5,-136.5 71.5,-142.5 71.5,-148.5 71.5,-148.5 71.5,-337.5 71.5,-337.5 71.5,-343.5 65.5,-349.5 59.5,-349.5 59.5,-349.5 -21.5,-349.5 -21.5,-349.5 -27.5,-349.5 -33.5,-343.5 -33.5,-337.5 -33.5,-337.5 -33.5,-148.5 -33.5,-148.5 -33.5,-142.5 -27.5,-136.5 -21.5,-136.5"/>
<text text-anchor="middle" x="19" y="-334.3" font-family="Times,serif" font-size="14.00">ZonesController</text>
<polyline fill="none" stroke="black" points="-33.5,-326.5 71.5,-326.5 "/>
<text text-anchor="start" x="-25.5" y="-311.3" font-family="Times,serif" font-size="14.00">create</text>
<text text-anchor="start" x="-25.5" y="-296.3" font-family="Times,serif" font-size="14.00">destroy</text>
<text text-anchor="start" x="-25.5" y="-281.3" font-family="Times,serif" font-size="14.00">edit</text>
<text text-anchor="start" x="-25.5" y="-266.3" font-family="Times,serif" font-size="14.00">index</text>
<text text-anchor="start" x="-25.5" y="-251.3" font-family="Times,serif" font-size="14.00">new</text>
<text text-anchor="start" x="-25.5" y="-236.3" font-family="Times,serif" font-size="14.00">show</text>
<text text-anchor="start" x="-25.5" y="-221.3" font-family="Times,serif" font-size="14.00">update</text>
<polyline fill="none" stroke="black" points="-33.5,-213.5 71.5,-213.5 "/>
<polyline fill="none" stroke="black" points="-33.5,-189.5 71.5,-189.5 "/>
<text text-anchor="start" x="-25.5" y="-174.3" font-family="Times,serif" font-size="14.00">_layout</text>
<text text-anchor="start" x="-25.5" y="-159.3" font-family="Times,serif" font-size="14.00">set_zone</text>
<text text-anchor="start" x="-25.5" y="-144.3" font-family="Times,serif" font-size="14.00">zone_params</text>
</g>
<!-- CustomersController -->
<g id="node3" class="node"><title>CustomersController</title>
<path fill="none" stroke="black" d="M-55.5,118C-55.5,118 51.5,118 51.5,118 57.5,118 63.5,112 63.5,106 63.5,106 63.5,-98 63.5,-98 63.5,-104 57.5,-110 51.5,-110 51.5,-110 -55.5,-110 -55.5,-110 -61.5,-110 -67.5,-104 -67.5,-98 -67.5,-98 -67.5,106 -67.5,106 -67.5,112 -61.5,118 -55.5,118"/>
<text text-anchor="middle" x="-2" y="-94.8" font-family="Times,serif" font-size="14.00">CustomersController</text>
<polyline fill="none" stroke="black" points="-67.5,-87 63.5,-87 "/>
<text text-anchor="start" x="-59.5" y="-71.8" font-family="Times,serif" font-size="14.00">create</text>
<text text-anchor="start" x="-59.5" y="-56.8" font-family="Times,serif" font-size="14.00">destroy</text>
<text text-anchor="start" x="-59.5" y="-41.8" font-family="Times,serif" font-size="14.00">edit</text>
<text text-anchor="start" x="-59.5" y="-26.8" font-family="Times,serif" font-size="14.00">import</text>
<text text-anchor="start" x="-59.5" y="-11.8" font-family="Times,serif" font-size="14.00">index</text>
<text text-anchor="start" x="-59.5" y="3.2" font-family="Times,serif" font-size="14.00">new</text>
<text text-anchor="start" x="-59.5" y="18.2" font-family="Times,serif" font-size="14.00">show</text>
<text text-anchor="start" x="-59.5" y="33.2" font-family="Times,serif" font-size="14.00">update</text>
<polyline fill="none" stroke="black" points="-67.5,41 63.5,41 "/>
<polyline fill="none" stroke="black" points="-67.5,65 63.5,65 "/>
<text text-anchor="start" x="-59.5" y="80.2" font-family="Times,serif" font-size="14.00">_layout</text>
<text text-anchor="start" x="-59.5" y="95.2" font-family="Times,serif" font-size="14.00">customer_params</text>
<text text-anchor="start" x="-59.5" y="110.2" font-family="Times,serif" font-size="14.00">set_customer</text>
</g>
<!-- HomeController -->
<g id="node4" class="node"><title>HomeController</title>
<path fill="none" stroke="black" d="M-192,-85.5C-192,-85.5 -110,-85.5 -110,-85.5 -104,-85.5 -98,-91.5 -98,-97.5 -98,-97.5 -98,-166.5 -98,-166.5 -98,-172.5 -104,-178.5 -110,-178.5 -110,-178.5 -192,-178.5 -192,-178.5 -198,-178.5 -204,-172.5 -204,-166.5 -204,-166.5 -204,-97.5 -204,-97.5 -204,-91.5 -198,-85.5 -192,-85.5"/>
<text text-anchor="middle" x="-151" y="-163.3" font-family="Times,serif" font-size="14.00">HomeController</text>
<polyline fill="none" stroke="black" points="-204,-155.5 -98,-155.5 "/>
<text text-anchor="start" x="-196" y="-140.3" font-family="Times,serif" font-size="14.00">home</text>
<polyline fill="none" stroke="black" points="-204,-132.5 -98,-132.5 "/>
<polyline fill="none" stroke="black" points="-204,-108.5 -98,-108.5 "/>
<text text-anchor="start" x="-196" y="-93.3" font-family="Times,serif" font-size="14.00">_layout</text>
</g>
<!-- AddressesController -->
<g id="node5" class="node"><title>AddressesController</title>
<path fill="none" stroke="black" d="M114,101.5C114,101.5 218,101.5 218,101.5 224,101.5 230,95.5 230,89.5 230,89.5 230,-99.5 230,-99.5 230,-105.5 224,-111.5 218,-111.5 218,-111.5 114,-111.5 114,-111.5 108,-111.5 102,-105.5 102,-99.5 102,-99.5 102,89.5 102,89.5 102,95.5 108,101.5 114,101.5"/>
<text text-anchor="middle" x="166" y="-96.3" font-family="Times,serif" font-size="14.00">AddressesController</text>
<polyline fill="none" stroke="black" points="102,-88.5 230,-88.5 "/>
<text text-anchor="start" x="110" y="-73.3" font-family="Times,serif" font-size="14.00">create</text>
<text text-anchor="start" x="110" y="-58.3" font-family="Times,serif" font-size="14.00">destroy</text>
<text text-anchor="start" x="110" y="-43.3" font-family="Times,serif" font-size="14.00">edit</text>
<text text-anchor="start" x="110" y="-28.3" font-family="Times,serif" font-size="14.00">index</text>
<text text-anchor="start" x="110" y="-13.3" font-family="Times,serif" font-size="14.00">new</text>
<text text-anchor="start" x="110" y="1.7" font-family="Times,serif" font-size="14.00">show</text>
<text text-anchor="start" x="110" y="16.7" font-family="Times,serif" font-size="14.00">update</text>
<polyline fill="none" stroke="black" points="102,24.5 230,24.5 "/>
<polyline fill="none" stroke="black" points="102,48.5 230,48.5 "/>
<text text-anchor="start" x="110" y="63.7" font-family="Times,serif" font-size="14.00">_layout</text>
<text text-anchor="start" x="110" y="78.7" font-family="Times,serif" font-size="14.00">address_params</text>
<text text-anchor="start" x="110" y="93.7" font-family="Times,serif" font-size="14.00">set_address</text>
</g>
<!-- ApplicationController -->
<g id="node6" class="node"><title>ApplicationController</title>
<path fill="none" stroke="black" d="M-192,-205C-192,-205 -80,-205 -80,-205 -74,-205 -68,-211 -68,-217 -68,-217 -68,-287 -68,-287 -68,-293 -74,-299 -80,-299 -80,-299 -192,-299 -192,-299 -198,-299 -204,-293 -204,-287 -204,-287 -204,-217 -204,-217 -204,-211 -198,-205 -192,-205"/>
<text text-anchor="middle" x="-136" y="-283.8" font-family="Times,serif" font-size="14.00">ApplicationController</text>
<polyline fill="none" stroke="black" points="-204,-276 -68,-276 "/>
<polyline fill="none" stroke="black" points="-204,-252 -68,-252 "/>
<polyline fill="none" stroke="black" points="-204,-228 -68,-228 "/>
<text text-anchor="start" x="-196" y="-212.8" font-family="Times,serif" font-size="14.00">_layout</text>
</g>
</g>
</svg>
