<?xml version="1.0" encoding="UTF-8" standalone="no"?>
<!DOCTYPE svg PUBLIC "-//W3C//DTD SVG 1.1//EN"
 "http://www.w3.org/Graphics/SVG/1.1/DTD/svg11.dtd">
<!-- Generated by graphviz version 2.38.0 (20140413.2041)
 -->
<!-- Title: models_diagram Pages: 1 -->
<svg width="770pt" height="641pt"
 viewBox="0.00 0.00 770.34 641.00" xmlns="http://www.w3.org/2000/svg" xmlns:xlink="http://www.w3.org/1999/xlink">
<g id="graph0" class="graph" transform="scale(1 1) rotate(0) translate(4 637)">
<title>models_diagram</title>
<polygon fill="none" stroke="none" points="-4,4 -4,-637 766.343,-637 766.343,4 -4,4"/>
<!-- _diagram_info -->
<g id="node1" class="node"><title>_diagram_info</title>
<text text-anchor="start" x="8" y="-529.1" font-family="Times,serif" font-size="13.00">Models diagram</text>
<text text-anchor="start" x="8" y="-515.1" font-family="Times,serif" font-size="13.00">Date: Sep 22 2017 &#45; 20:08</text>
<text text-anchor="start" x="8" y="-501.1" font-family="Times,serif" font-size="13.00">Migration version: 20170829231837</text>
<text text-anchor="start" x="8" y="-487.1" font-family="Times,serif" font-size="13.00">Generated by RailRoady 1.5.3</text>
<text text-anchor="start" x="8" y="-473.1" font-family="Times,serif" font-size="13.00">http://railroady.prestonlee.com</text>
</g>
<!-- Address -->
<g id="node2" class="node"><title>Address</title>
<path fill="none" stroke="black" d="M168.5,-0.5C168.5,-0.5 275.5,-0.5 275.5,-0.5 281.5,-0.5 287.5,-6.5 287.5,-12.5 287.5,-12.5 287.5,-124.5 287.5,-124.5 287.5,-130.5 281.5,-136.5 275.5,-136.5 275.5,-136.5 168.5,-136.5 168.5,-136.5 162.5,-136.5 156.5,-130.5 156.5,-124.5 156.5,-124.5 156.5,-12.5 156.5,-12.5 156.5,-6.5 162.5,-0.5 168.5,-0.5"/>
<text text-anchor="middle" x="222" y="-121.3" font-family="Times,serif" font-size="14.00">Address</text>
<polyline fill="none" stroke="black" points="156.5,-113.5 287.5,-113.5 "/>
<text text-anchor="start" x="164.5" y="-98.3" font-family="Times,serif" font-size="14.00">id :INTEGER</text>
<text text-anchor="start" x="164.5" y="-83.3" font-family="Times,serif" font-size="14.00">address :varchar</text>
<text text-anchor="start" x="164.5" y="-68.3" font-family="Times,serif" font-size="14.00">latitude :float</text>
<text text-anchor="start" x="164.5" y="-53.3" font-family="Times,serif" font-size="14.00">longitude :float</text>
<text text-anchor="start" x="164.5" y="-38.3" font-family="Times,serif" font-size="14.00">customer_id :integer</text>
<text text-anchor="start" x="164.5" y="-23.3" font-family="Times,serif" font-size="14.00">created_at :datetime</text>
<text text-anchor="start" x="164.5" y="-8.3" font-family="Times,serif" font-size="14.00">updated_at :datetime</text>
</g>
<!-- Customer -->
<g id="node3" class="node"><title>Customer</title>
<path fill="none" stroke="black" d="M159,-173.5C159,-173.5 285,-173.5 285,-173.5 291,-173.5 297,-179.5 297,-185.5 297,-185.5 297,-327.5 297,-327.5 297,-333.5 291,-339.5 285,-339.5 285,-339.5 159,-339.5 159,-339.5 153,-339.5 147,-333.5 147,-327.5 147,-327.5 147,-185.5 147,-185.5 147,-179.5 153,-173.5 159,-173.5"/>
<text text-anchor="middle" x="222" y="-324.3" font-family="Times,serif" font-size="14.00">Customer</text>
<polyline fill="none" stroke="black" points="147,-316.5 297,-316.5 "/>
<text text-anchor="start" x="155" y="-301.3" font-family="Times,serif" font-size="14.00">id :INTEGER</text>
<text text-anchor="start" x="155" y="-286.3" font-family="Times,serif" font-size="14.00">n_socio :varchar</text>
<text text-anchor="start" x="155" y="-271.3" font-family="Times,serif" font-size="14.00">nombre :varchar</text>
<text text-anchor="start" x="155" y="-256.3" font-family="Times,serif" font-size="14.00">apellido :varchar</text>
<text text-anchor="start" x="155" y="-241.3" font-family="Times,serif" font-size="14.00">created_at :datetime</text>
<text text-anchor="start" x="155" y="-226.3" font-family="Times,serif" font-size="14.00">updated_at :datetime</text>
<text text-anchor="start" x="155" y="-211.3" font-family="Times,serif" font-size="14.00">zone_id :integer</text>
<text text-anchor="start" x="155" y="-196.3" font-family="Times,serif" font-size="14.00">estado :integer</text>
<text text-anchor="start" x="155" y="-181.3" font-family="Times,serif" font-size="14.00">fecha_vencimiento :date</text>
</g>
<!-- Customer&#45;&gt;Address -->
<g id="edge1" class="edge"><title>Customer&#45;&gt;Address</title>
<path fill="none" stroke="#a9c8a2" d="M222,-165.302C222,-159.129 222,-152.941 222,-146.844"/>
<ellipse fill="none" stroke="#a9c8a2" cx="222" cy="-169.376" rx="4" ry="4"/>
<polygon fill="#a9c8a2" stroke="#a9c8a2" points="222,-146.691 226.5,-136.691 222,-141.691 222,-136.691 222,-136.691 222,-136.691 222,-141.691 217.5,-136.691 222,-146.691 222,-146.691"/>
</g>
<!-- Zone -->
<g id="node4" class="node"><title>Zone</title>
<path fill="none" stroke="black" d="M244.5,-451.5C244.5,-451.5 359.5,-451.5 359.5,-451.5 365.5,-451.5 371.5,-457.5 371.5,-463.5 371.5,-463.5 371.5,-545.5 371.5,-545.5 371.5,-551.5 365.5,-557.5 359.5,-557.5 359.5,-557.5 244.5,-557.5 244.5,-557.5 238.5,-557.5 232.5,-551.5 232.5,-545.5 232.5,-545.5 232.5,-463.5 232.5,-463.5 232.5,-457.5 238.5,-451.5 244.5,-451.5"/>
<text text-anchor="middle" x="302" y="-542.3" font-family="Times,serif" font-size="14.00">Zone</text>
<polyline fill="none" stroke="black" points="232.5,-534.5 371.5,-534.5 "/>
<text text-anchor="start" x="240.5" y="-519.3" font-family="Times,serif" font-size="14.00">id :INTEGER</text>
<text text-anchor="start" x="240.5" y="-504.3" font-family="Times,serif" font-size="14.00">nombre_zona :varchar</text>
<text text-anchor="start" x="240.5" y="-489.3" font-family="Times,serif" font-size="14.00">color :varchar</text>
<text text-anchor="start" x="240.5" y="-474.3" font-family="Times,serif" font-size="14.00">created_at :datetime</text>
<text text-anchor="start" x="240.5" y="-459.3" font-family="Times,serif" font-size="14.00">updated_at :datetime</text>
</g>
<!-- Zone&#45;&gt;Customer -->
<g id="edge3" class="edge"><title>Zone&#45;&gt;Customer</title>
<path fill="none" stroke="#d6eaaa" d="M282.505,-443.552C273.294,-415.229 262.095,-380.792 251.848,-349.282"/>
<ellipse fill="none" stroke="#d6eaaa" cx="283.797" cy="-447.526" rx="4.00001" ry="4.00001"/>
<polygon fill="#d6eaaa" stroke="#d6eaaa" points="251.794,-349.117 252.981,-338.215 250.248,-344.362 248.701,-339.607 248.701,-339.607 248.701,-339.607 250.248,-344.362 244.422,-340.998 251.794,-349.117 251.794,-349.117"/>
</g>
<!-- CoordinateZone -->
<g id="node7" class="node"><title>CoordinateZone</title>
<path fill="none" stroke="black" d="M327.5,-196C327.5,-196 434.5,-196 434.5,-196 440.5,-196 446.5,-202 446.5,-208 446.5,-208 446.5,-305 446.5,-305 446.5,-311 440.5,-317 434.5,-317 434.5,-317 327.5,-317 327.5,-317 321.5,-317 315.5,-311 315.5,-305 315.5,-305 315.5,-208 315.5,-208 315.5,-202 321.5,-196 327.5,-196"/>
<text text-anchor="middle" x="381" y="-301.8" font-family="Times,serif" font-size="14.00">CoordinateZone</text>
<polyline fill="none" stroke="black" points="315.5,-294 446.5,-294 "/>
<text text-anchor="start" x="323.5" y="-278.8" font-family="Times,serif" font-size="14.00">id :INTEGER</text>
<text text-anchor="start" x="323.5" y="-263.8" font-family="Times,serif" font-size="14.00">latitud :float</text>
<text text-anchor="start" x="323.5" y="-248.8" font-family="Times,serif" font-size="14.00">longitud :float</text>
<text text-anchor="start" x="323.5" y="-233.8" font-family="Times,serif" font-size="14.00">zone_id :integer</text>
<text text-anchor="start" x="323.5" y="-218.8" font-family="Times,serif" font-size="14.00">created_at :datetime</text>
<text text-anchor="start" x="323.5" y="-203.8" font-family="Times,serif" font-size="14.00">updated_at :datetime</text>
</g>
<!-- Zone&#45;&gt;CoordinateZone -->
<g id="edge2" class="edge"><title>Zone&#45;&gt;CoordinateZone</title>
<path fill="none" stroke="#60d4f3" d="M321.322,-443.334C332.612,-408.178 346.909,-363.658 358.678,-327.008"/>
<ellipse fill="none" stroke="#60d4f3" cx="319.977" cy="-447.521" rx="4.00001" ry="4.00001"/>
<polygon fill="#60d4f3" stroke="#60d4f3" points="358.711,-326.905 366.054,-318.759 360.24,-322.144 361.769,-317.383 361.769,-317.383 361.769,-317.383 360.24,-322.144 357.485,-316.008 358.711,-326.905 358.711,-326.905"/>
</g>
<!-- User -->
<g id="node5" class="node"><title>User</title>
<path fill="none" stroke="black" d="M402,-376.5C402,-376.5 578,-376.5 578,-376.5 584,-376.5 590,-382.5 590,-388.5 590,-388.5 590,-620.5 590,-620.5 590,-626.5 584,-632.5 578,-632.5 578,-632.5 402,-632.5 402,-632.5 396,-632.5 390,-626.5 390,-620.5 390,-620.5 390,-388.5 390,-388.5 390,-382.5 396,-376.5 402,-376.5"/>
<text text-anchor="middle" x="490" y="-617.3" font-family="Times,serif" font-size="14.00">User</text>
<polyline fill="none" stroke="black" points="390,-609.5 590,-609.5 "/>
<text text-anchor="start" x="398" y="-594.3" font-family="Times,serif" font-size="14.00">id :INTEGER</text>
<text text-anchor="start" x="398" y="-579.3" font-family="Times,serif" font-size="14.00">name :varchar</text>
<text text-anchor="start" x="398" y="-564.3" font-family="Times,serif" font-size="14.00">last_name :varchar</text>
<text text-anchor="start" x="398" y="-549.3" font-family="Times,serif" font-size="14.00">email :varchar</text>
<text text-anchor="start" x="398" y="-534.3" font-family="Times,serif" font-size="14.00">encrypted_password :varchar</text>
<text text-anchor="start" x="398" y="-519.3" font-family="Times,serif" font-size="14.00">reset_password_token :varchar</text>
<text text-anchor="start" x="398" y="-504.3" font-family="Times,serif" font-size="14.00">reset_password_sent_at :datetime</text>
<text text-anchor="start" x="398" y="-489.3" font-family="Times,serif" font-size="14.00">remember_created_at :datetime</text>
<text text-anchor="start" x="398" y="-474.3" font-family="Times,serif" font-size="14.00">sign_in_count :integer</text>
<text text-anchor="start" x="398" y="-459.3" font-family="Times,serif" font-size="14.00">current_sign_in_at :datetime</text>
<text text-anchor="start" x="398" y="-444.3" font-family="Times,serif" font-size="14.00">last_sign_in_at :datetime</text>
<text text-anchor="start" x="398" y="-429.3" font-family="Times,serif" font-size="14.00">current_sign_in_ip :varchar</text>
<text text-anchor="start" x="398" y="-414.3" font-family="Times,serif" font-size="14.00">last_sign_in_ip :varchar</text>
<text text-anchor="start" x="398" y="-399.3" font-family="Times,serif" font-size="14.00">created_at :datetime</text>
<text text-anchor="start" x="398" y="-384.3" font-family="Times,serif" font-size="14.00">updated_at :datetime</text>
</g>
<!-- ApplicationRecord -->
<g id="node6" class="node"><title>ApplicationRecord</title>
<ellipse fill="none" stroke="black" cx="685" cy="-504.5" rx="77.1866" ry="18"/>
<text text-anchor="middle" x="685" y="-500.8" font-family="Times,serif" font-size="14.00">ApplicationRecord</text>
</g>
</g>
</svg>
